<svg width="128" height="128" viewBox="0 0 128 128" xmlns="http://www.w3.org/2000/svg">
  <rect width="128" height="128" rx="24" fill="#ff6b35"/>
  <g transform="translate(32, 32)">
    <path d="M28 32c0 1.1.9 2 2 2h4v-4c0-5.5 4.5-10 10-10s10 4.5 10 10c0 2.8-1.2 5.4-3.2 7.3l-7.3 6.7c-.5.5-.5 1.2 0 1.7l1.8 1.8c.5.5 1.2.5 1.7 0l7.3-6.7C58.3 37.2 61 32.3 61 27c0-9.4-7.6-17-17-17s-17 7.6-17 17v7zm8 16c0-1.1-.9-2-2-2h-4v4c0 5.5-4.5 10-10 10s-10-4.5-10-10c0-2.8 1.2-5.4 3.2-7.3l7.3-6.7c.5-.5.5-1.2 0-1.7l-1.8-1.8c-.5-.5-1.2-.5-1.7 0l-7.3 6.7C5.7 42.8 3 47.7 3 53c0 9.4 7.6 17 17 17s17-7.6 17-17v-7z" fill="white"/>
  </g>
</svg>